<svg
              xmlns="http://www.w3.org/2000/svg"
              class="logo"
              viewBox="0 0 327 327"
             fill="#ffffff"
            >
<text x="10" y="210" font-size="220" fill="#0170f5" font-family="Arial, sans-serif">{</text>
<text x="245" y="210" font-size="220" fill="#0170f5" font-family="Arial, sans-serif">}</text>
              <path
                d="M88.5 68.1c-26.4 5.3-44.7 22.1-50.9 47-.9 3.6-1.6 7.7-1.6 9.2v2.7h40.8l.6-3.5c1.9-10 7.4-17.1 16.6-21.4 5.1-2.4 6.6-2.6 19-2.6 10.3 0 14.7.4 18.5 1.8 7.3 2.5 14.4 8.3 17.4 14.2 2.3 4.3 2.6 6.4 2.9 17.1l.4 12.1-8.9.7c-66.7 4.9-88.1 10.3-103.3 26.2-10.7 11.1-14.7 23-13.7 40.9 1.8 32.6 22.3 50.5 60.7 53.1 11.6.7 25.6-1.3 37.8-5.6 9.2-3.2 15.6-7 24.4-14.3 3.1-2.6 5.9-4.7 6.1-4.7s.7 3 1.1 6.7c.4 3.8 1.1 8.5 1.7 10.5l1 3.8h19.4c15 0 19.5-.3 19.5-1.3 0-.6-1-6.6-2.2-13.2-1.9-11.1-2.2-16.8-2.7-73-.7-59.2-.8-61.2-2.9-67.6-8.9-26.8-36.1-41.1-77.6-40.8-9.7 0-17.3.7-24.1 2m64.2 118.1c-.9 19.7-4.6 28.9-14.8 36.4-11.1 8.1-25.8 12.2-40.8 11.1-12.7-.8-21.5-5.9-26.4-15.2-3.1-5.8-3-17.6.1-22.6C76.1 187.3 81.4 184 95 181c7.4-1.6 31.3-5 52-7.3 1.9-.2 4.1-.5 4.9-.5 1.2-.2 1.3 2 .8 13M214.8 67c-15.4 2.8-31.1 10.2-25.9 12.2 1.8.7 10.7 15.6 12.6 21.1 1.5 4.4 2.3 5.6 3.5 5.1.8-.4 4.9-.9 9.1-1.1 11.4-.8 21.3 2.4 28.6 9 6 5.6 10.4 13.3 12.2 21.5.7 3.6 1.1 24.9 1.1 66.2v61h21.4c19.5 0 21.4-.2 21.8-1.7.2-1 .3-31.1.2-66.8-.2-60.7-.3-65.6-2.2-74.7-4.3-20.7-15.9-36.1-33.5-44.8-4.5-2.2-11.6-4.7-15.7-5.6-8.9-1.9-26.6-2.6-33.2-1.4"
              />
            </svg>